<svg xmlns="http://www.w3.org/2000/svg" xmlns:xlink="http://www.w3.org/1999/xlink" width="1000" zoomAndPan="magnify" viewBox="0 0 750 225" height="300" preserveAspectRatio="xMidYMid meet" version="1.0"><defs><g/><clipPath id="358f0fd953"><path d="M 45 22.5 L 225.21875 22.5 L 225.21875 201 L 45 201 Z M 45 22.5 " clip-rule="nonzero"/></clipPath></defs><path fill="#00bf63" d="M 104.332031 116.835938 C 108.558594 119.007812 107.5 123.570312 107.5 123.570312 C 104.570312 129.625 97.6875 124.261719 94.84375 121.933594 C 92.003906 119.605469 100.113281 114.664062 104.332031 116.835938 " fill-opacity="1" fill-rule="nonzero"/><path fill="#00bf63" d="M 91.359375 144.847656 C 98.515625 162.375 108.425781 154.933594 108.425781 154.933594 C 108.425781 154.933594 106.691406 167.207031 125.496094 165.023438 C 125.496094 165.023438 114.589844 174.144531 105.160156 160.464844 C 88.625 158.804688 91.359375 144.847656 91.359375 144.847656 Z M 111.269531 150.125 C 101.628906 141.1875 108.777344 135.679688 112.175781 135.417969 C 115.574219 135.15625 117.945312 138.828125 117.945312 138.828125 C 117.945312 138.828125 122.304688 139.132812 123.714844 142.238281 C 125.125 145.339844 123.746094 154.257812 111.269531 150.125 Z M 68.597656 149.886719 L 71.722656 144.597656 C 72.671875 164.945312 94.648438 178.253906 94.648438 178.253906 C 94.648438 178.253906 116.90625 191.085938 135.1875 182.101562 L 132.0625 187.390625 C 132.0625 187.390625 146.347656 181.882812 145.265625 170.539062 C 144.183594 159.199219 126.371094 152.5625 129.027344 141.484375 C 131.683594 130.402344 146.421875 129.058594 151.996094 138.839844 C 157.570312 148.621094 155.613281 164.003906 152.019531 170.640625 C 152.019531 170.640625 161.371094 158.652344 161.199219 146.871094 C 161.023438 135.089844 153.503906 128.054688 153.503906 128.054688 L 159.207031 128.828125 C 159.207031 128.828125 142.925781 114.667969 129.738281 118.875 C 127.058594 105.289062 106.800781 97.859375 106.800781 97.859375 L 110.230469 102.480469 C 110.230469 102.480469 100.441406 99.289062 90.035156 104.820312 C 79.632812 110.347656 73.644531 124.324219 73.644531 124.324219 C 77.722656 117.976562 90.253906 108.839844 101.511719 109.003906 C 112.765625 109.171875 118.699219 122.730469 110.273438 130.402344 C 101.847656 138.074219 87.445312 125.667969 76.988281 130.195312 C 66.53125 134.71875 68.597656 149.886719 68.597656 149.886719 " fill-opacity="1" fill-rule="nonzero"/><g clip-path="url(#358f0fd953)"><path fill="#00bf63" d="M 130.453125 22.8125 C 131.449219 22.773438 132.449219 22.753906 133.449219 22.75 C 183.6875 22.5 225.050781 63.652344 225.050781 113.886719 C 225.050781 155.3125 197.410156 190.277344 159.566406 201.355469 C 168.207031 185.277344 172.066406 173.300781 172.066406 173.300781 L 174.960938 177.828125 C 181.945312 158.679688 177.050781 139.546875 177.050781 139.546875 L 181.183594 141.882812 C 180.898438 123.109375 164.644531 113.273438 164.644531 113.273438 L 170.816406 114.839844 C 162.453125 102.40625 144.328125 99.851562 144.328125 99.851562 C 139.078125 87.578125 119.042969 83.296875 119.042969 83.296875 L 123.953125 89.925781 C 111.484375 81.910156 96.09375 86.996094 96.09375 86.996094 L 100.648438 90.855469 C 81.285156 90.484375 66.117188 108.214844 66.117188 108.214844 L 69.828125 109.03125 C 54.3125 126.242188 53.449219 148.746094 53.449219 148.746094 C 53.449219 148.746094 52.039062 145.371094 50.222656 139.871094 C 31.746094 83.898438 71.550781 25.007812 130.453125 22.8125 " fill-opacity="1" fill-rule="nonzero"/></g><path fill="#00bf63" d="M 143.886719 150.914062 C 140.476562 149.550781 132.457031 146.105469 136.347656 140.621094 C 136.347656 140.621094 139.835938 137.492188 143.777344 140.144531 C 147.714844 142.792969 147.296875 152.28125 143.886719 150.914062 " fill-opacity="1" fill-rule="nonzero"/><g fill="#022b62" fill-opacity="1"><g transform="translate(240.516399, 157.294398)"><g><path d="M 21.765625 -68.859375 L 21.765625 -37.140625 L 35.8125 -37.140625 L 35.8125 -68.859375 C 35.8125 -70.929688 35.195312 -72.769531 33.96875 -74.375 C 32.738281 -75.976562 31.023438 -76.78125 28.828125 -76.78125 C 26.585938 -76.78125 24.847656 -75.976562 23.609375 -74.375 C 22.378906 -72.769531 21.765625 -70.929688 21.765625 -68.859375 Z M 53.4375 -69.859375 L 53.4375 -2.640625 C 53.4375 -1.984375 53.269531 -1.378906 52.9375 -0.828125 C 52.601562 -0.273438 52.0625 0 51.3125 0 L 37.921875 0 C 37.265625 0 36.75 -0.257812 36.375 -0.78125 C 36 -1.3125 35.8125 -1.929688 35.8125 -2.640625 L 35.8125 -21.765625 L 21.765625 -21.765625 L 21.765625 -2.578125 C 21.765625 -1.867188 21.628906 -1.257812 21.359375 -0.75 C 21.097656 -0.25 20.578125 0 19.796875 0 L 5.875 0 C 5.382812 0 4.972656 -0.25 4.640625 -0.75 C 4.316406 -1.257812 4.15625 -1.867188 4.15625 -2.578125 L 4.15625 -69.859375 C 4.15625 -73.023438 4.8125 -75.992188 6.125 -78.765625 C 7.445312 -81.535156 9.238281 -83.960938 11.5 -86.046875 C 13.769531 -88.140625 16.390625 -89.78125 19.359375 -90.96875 C 22.328125 -92.15625 25.460938 -92.75 28.765625 -92.75 C 32.054688 -92.75 35.1875 -92.15625 38.15625 -90.96875 C 41.125 -89.78125 43.75 -88.140625 46.03125 -86.046875 C 48.320312 -83.960938 50.128906 -81.535156 51.453125 -78.765625 C 52.773438 -75.992188 53.4375 -73.023438 53.4375 -69.859375 Z M 53.4375 -69.859375 "/></g></g></g><g fill="#022b62" fill-opacity="1"><g transform="translate(308.088286, 157.294398)"><g><path d="M 36.484375 -56.53125 L 36.484375 -67.484375 C 36.484375 -69.859375 35.789062 -71.75 34.40625 -73.15625 C 33.019531 -74.5625 31.179688 -75.265625 28.890625 -75.265625 L 22.296875 -75.265625 L 22.296875 -49.078125 L 28.4375 -49.078125 C 31.070312 -49.078125 33.070312 -49.757812 34.4375 -51.125 C 35.800781 -52.488281 36.484375 -54.289062 36.484375 -56.53125 Z M 51.125 -0.0625 L 38.984375 -0.0625 C 38.234375 -0.0625 37.539062 -0.3125 36.90625 -0.8125 C 36.269531 -1.320312 35.953125 -2.0625 35.953125 -3.03125 L 35.953125 -16.828125 C 35.953125 -23.203125 34.804688 -27.828125 32.515625 -30.703125 C 30.234375 -33.585938 26.828125 -35.179688 22.296875 -35.484375 L 22.296875 -2.4375 C 22.296875 -0.8125 21.570312 0 20.125 0 L 6.921875 0 C 5.472656 0 4.75 -0.8125 4.75 -2.4375 L 4.75 -88.71875 C 4.75 -90.4375 5.492188 -91.296875 6.984375 -91.296875 L 30.28125 -91.296875 C 33.664062 -91.296875 36.804688 -90.675781 39.703125 -89.4375 C 42.609375 -88.207031 45.140625 -86.492188 47.296875 -84.296875 C 49.453125 -82.097656 51.125 -79.566406 52.3125 -76.703125 C 53.5 -73.847656 54.09375 -70.773438 54.09375 -67.484375 L 54.09375 -58.046875 C 54.09375 -54.128906 53.191406 -50.796875 51.390625 -48.046875 C 49.585938 -45.304688 47.34375 -43.035156 44.65625 -41.234375 C 47.644531 -38.722656 49.863281 -35.320312 51.3125 -31.03125 C 52.769531 -26.75 53.5 -21.304688 53.5 -14.703125 L 53.5 -2.84375 C 53.5 -2.269531 53.320312 -1.660156 52.96875 -1.015625 C 52.613281 -0.378906 52 -0.0625 51.125 -0.0625 Z M 51.125 -0.0625 "/></g></g></g><g fill="#022b62" fill-opacity="1"><g transform="translate(375.726102, 157.294398)"><g><path d="M 51.25 -69.453125 L 51.25 -63.0625 C 51.25 -62.050781 51.117188 -61.3125 50.859375 -60.84375 C 50.597656 -60.382812 50.023438 -60.15625 49.140625 -60.15625 L 36.875 -60.15625 C 36.082031 -60.15625 35.539062 -60.363281 35.25 -60.78125 C 34.96875 -61.195312 34.828125 -61.867188 34.828125 -62.796875 L 34.828125 -68.9375 C 34.828125 -70.25 34.5625 -71.507812 34.03125 -72.71875 C 33.507812 -73.925781 32.742188 -74.914062 31.734375 -75.6875 C 30.722656 -76.457031 29.488281 -76.84375 28.03125 -76.84375 C 25.875 -76.84375 24.132812 -76.0625 22.8125 -74.5 C 21.5 -72.945312 20.84375 -71.132812 20.84375 -69.0625 L 20.84375 -22.421875 C 20.84375 -21.054688 21.128906 -19.757812 21.703125 -18.53125 C 22.273438 -17.300781 23.097656 -16.3125 24.171875 -15.5625 C 25.253906 -14.820312 26.539062 -14.453125 28.03125 -14.453125 C 30.445312 -14.453125 32.238281 -15.265625 33.40625 -16.890625 C 34.570312 -18.515625 35.15625 -20.359375 35.15625 -22.421875 L 35.15625 -30.28125 C 35.15625 -31.289062 35.296875 -31.96875 35.578125 -32.3125 C 35.867188 -32.664062 36.390625 -32.84375 37.140625 -32.84375 L 49.46875 -32.84375 C 50.21875 -32.84375 50.769531 -32.6875 51.125 -32.375 C 51.476562 -32.070312 51.65625 -31.414062 51.65625 -30.40625 L 51.65625 -21.4375 C 51.65625 -16.6875 50.585938 -12.597656 48.453125 -9.171875 C 46.316406 -5.742188 43.457031 -3.113281 39.875 -1.28125 C 36.289062 0.539062 32.300781 1.453125 27.90625 1.453125 C 24.601562 1.453125 21.46875 0.9375 18.5 -0.09375 C 15.53125 -1.132812 12.898438 -2.640625 10.609375 -4.609375 C 8.328125 -6.585938 6.535156 -8.992188 5.234375 -11.828125 C 3.941406 -14.671875 3.296875 -17.875 3.296875 -21.4375 L 3.296875 -69.796875 C 3.296875 -73.046875 3.898438 -76.066406 5.109375 -78.859375 C 6.316406 -81.648438 8.019531 -84.078125 10.21875 -86.140625 C 12.414062 -88.210938 15.007812 -89.816406 18 -90.953125 C 21 -92.097656 24.300781 -92.671875 27.90625 -92.671875 C 31.90625 -92.671875 35.378906 -92.007812 38.328125 -90.6875 C 41.273438 -89.375 43.703125 -87.617188 45.609375 -85.421875 C 47.523438 -83.222656 48.941406 -80.738281 49.859375 -77.96875 C 50.785156 -75.195312 51.25 -72.359375 51.25 -69.453125 Z M 51.25 -69.453125 "/></g></g></g><g fill="#022b62" fill-opacity="1"><g transform="translate(439.868648, 157.294398)"><g><path d="M 21.765625 -68.859375 L 21.765625 -37.140625 L 35.8125 -37.140625 L 35.8125 -68.859375 C 35.8125 -70.929688 35.195312 -72.769531 33.96875 -74.375 C 32.738281 -75.976562 31.023438 -76.78125 28.828125 -76.78125 C 26.585938 -76.78125 24.847656 -75.976562 23.609375 -74.375 C 22.378906 -72.769531 21.765625 -70.929688 21.765625 -68.859375 Z M 53.4375 -69.859375 L 53.4375 -2.640625 C 53.4375 -1.984375 53.269531 -1.378906 52.9375 -0.828125 C 52.601562 -0.273438 52.0625 0 51.3125 0 L 37.921875 0 C 37.265625 0 36.75 -0.257812 36.375 -0.78125 C 36 -1.3125 35.8125 -1.929688 35.8125 -2.640625 L 35.8125 -21.765625 L 21.765625 -21.765625 L 21.765625 -2.578125 C 21.765625 -1.867188 21.628906 -1.257812 21.359375 -0.75 C 21.097656 -0.25 20.578125 0 19.796875 0 L 5.875 0 C 5.382812 0 4.972656 -0.25 4.640625 -0.75 C 4.316406 -1.257812 4.15625 -1.867188 4.15625 -2.578125 L 4.15625 -69.859375 C 4.15625 -73.023438 4.8125 -75.992188 6.125 -78.765625 C 7.445312 -81.535156 9.238281 -83.960938 11.5 -86.046875 C 13.769531 -88.140625 16.390625 -89.78125 19.359375 -90.96875 C 22.328125 -92.15625 25.460938 -92.75 28.765625 -92.75 C 32.054688 -92.75 35.1875 -92.15625 38.15625 -90.96875 C 41.125 -89.78125 43.75 -88.140625 46.03125 -86.046875 C 48.320312 -83.960938 50.128906 -81.535156 51.453125 -78.765625 C 52.773438 -75.992188 53.4375 -73.023438 53.4375 -69.859375 Z M 53.4375 -69.859375 "/></g></g></g><g fill="#022b62" fill-opacity="1"><g transform="translate(507.44054, 157.294398)"><g><path d="M 22.296875 -75.265625 L 22.296875 -15.890625 L 29.15625 -15.890625 C 31.351562 -15.984375 33.109375 -16.785156 34.421875 -18.296875 C 35.742188 -19.816406 36.40625 -21.695312 36.40625 -23.9375 L 36.40625 -67.15625 C 36.40625 -69.925781 35.703125 -71.96875 34.296875 -73.28125 C 32.890625 -74.601562 31.066406 -75.265625 28.828125 -75.265625 Z M 4.75 -2.5 L 4.75 -88.71875 C 4.75 -90.4375 5.492188 -91.296875 6.984375 -91.296875 L 29.875 -91.296875 C 34.445312 -91.253906 38.546875 -90.328125 42.171875 -88.515625 C 45.804688 -86.710938 48.675781 -84.085938 50.78125 -80.640625 C 52.894531 -77.191406 53.953125 -72.9375 53.953125 -67.875 L 53.953125 -23.421875 C 53.953125 -18.359375 52.894531 -14.097656 50.78125 -10.640625 C 48.675781 -7.191406 45.804688 -4.566406 42.171875 -2.765625 C 38.546875 -0.960938 34.492188 -0.0390625 30.015625 0 L 6.984375 0 C 5.492188 0 4.75 -0.832031 4.75 -2.5 Z M 4.75 -2.5 "/></g></g></g><g fill="#022b62" fill-opacity="1"><g transform="translate(574.682648, 157.294398)"><g><path d="M 22.296875 -88.71875 L 22.296875 -2.5 C 22.296875 -0.832031 21.570312 0 20.125 0 L 6.921875 0 C 5.472656 0 4.75 -0.832031 4.75 -2.5 L 4.75 -88.71875 C 4.75 -90.4375 5.472656 -91.296875 6.921875 -91.296875 L 20.125 -91.296875 C 21.570312 -91.296875 22.296875 -90.4375 22.296875 -88.71875 Z M 22.296875 -88.71875 "/></g></g></g><g fill="#022b62" fill-opacity="1"><g transform="translate(611.786206, 157.294398)"><g><path d="M 21.765625 -68.859375 L 21.765625 -37.140625 L 35.8125 -37.140625 L 35.8125 -68.859375 C 35.8125 -70.929688 35.195312 -72.769531 33.96875 -74.375 C 32.738281 -75.976562 31.023438 -76.78125 28.828125 -76.78125 C 26.585938 -76.78125 24.847656 -75.976562 23.609375 -74.375 C 22.378906 -72.769531 21.765625 -70.929688 21.765625 -68.859375 Z M 53.4375 -69.859375 L 53.4375 -2.640625 C 53.4375 -1.984375 53.269531 -1.378906 52.9375 -0.828125 C 52.601562 -0.273438 52.0625 0 51.3125 0 L 37.921875 0 C 37.265625 0 36.75 -0.257812 36.375 -0.78125 C 36 -1.3125 35.8125 -1.929688 35.8125 -2.640625 L 35.8125 -21.765625 L 21.765625 -21.765625 L 21.765625 -2.578125 C 21.765625 -1.867188 21.628906 -1.257812 21.359375 -0.75 C 21.097656 -0.25 20.578125 0 19.796875 0 L 5.875 0 C 5.382812 0 4.972656 -0.25 4.640625 -0.75 C 4.316406 -1.257812 4.15625 -1.867188 4.15625 -2.578125 L 4.15625 -69.859375 C 4.15625 -73.023438 4.8125 -75.992188 6.125 -78.765625 C 7.445312 -81.535156 9.238281 -83.960938 11.5 -86.046875 C 13.769531 -88.140625 16.390625 -89.78125 19.359375 -90.96875 C 22.328125 -92.15625 25.460938 -92.75 28.765625 -92.75 C 32.054688 -92.75 35.1875 -92.15625 38.15625 -90.96875 C 41.125 -89.78125 43.75 -88.140625 46.03125 -86.046875 C 48.320312 -83.960938 50.128906 -81.535156 51.453125 -78.765625 C 52.773438 -75.992188 53.4375 -73.023438 53.4375 -69.859375 Z M 53.4375 -69.859375 "/></g></g></g></svg>